<svg width="860" height="520" viewBox="0 0 860 520" fill="none" xmlns="http://www.w3.org/2000/svg">
<path d="M853.664 140.311C853.664 140.311 841.132 132.025 825.855 162.003C810.576 191.979 804.788 209.268 804.788 209.268C804.788 209.268 800.749 215.548 796.436 211.443C792.12 207.337 786.212 195.692 778.879 197.788C771.272 199.963 768.768 208.451 770.217 220.924C771.668 233.396 773.843 260.84 774.031 263.321C774.215 265.759 772.819 269.349 769.432 267.024C766.044 264.699 746.557 242.996 736.815 252.86C727.071 262.721 736.82 296.807 737.815 300.552C738.809 304.299 738.076 305.899 736.296 306.825C734.516 307.753 728.655 299.841 722.86 293.896C717.064 287.951 709.303 282.073 704.159 288.235C699.013 294.396 697.367 319.971 721.705 361.509L734.243 380.019L756.663 378.775C804.483 373.188 823.907 356.473 825.727 348.655C827.548 340.837 818.181 338.181 809.945 337.135C801.709 336.088 791.863 336.173 791.532 334.195C791.2 332.215 792.036 330.667 795.625 329.204C799.215 327.743 832.296 314.999 834.301 301.281C836.308 287.563 807.248 285.076 803.352 283.772C799.455 282.469 801.481 279.192 803.537 277.871C805.631 276.527 828.849 261.735 839.68 255.38C850.511 249.028 855.779 241.916 852.935 234.535C850.192 227.417 837.336 229.713 831.46 228.741C825.584 227.769 828.167 220.764 828.167 220.764C828.167 220.764 838.483 205.731 853.213 175.481C867.944 145.231 853.399 140.161 853.399 140.161" fill="#4465B9"/>
<path d="M839.937 167.135C839.937 167.135 839.853 167.36 839.66 167.784C839.45 168.231 839.16 168.855 838.784 169.659C837.988 171.327 836.833 173.741 835.354 176.839C832.372 183.072 827.989 192.059 822.532 203.143C811.626 225.316 796.304 255.82 779.273 289.453C762.238 323.099 746.846 353.568 735.828 375.683C730.341 386.728 725.896 395.673 722.809 401.886C721.28 404.959 720.088 407.353 719.265 409.008C718.862 409.8 718.549 410.414 718.326 410.853C718.112 411.267 717.986 411.471 717.986 411.471C717.986 411.471 718.069 411.247 718.264 410.821C718.472 410.373 718.764 409.752 719.138 408.947C719.936 407.279 721.088 404.865 722.566 401.768C725.549 395.536 729.932 386.549 735.389 375.465C746.294 353.292 761.618 322.785 778.654 289.141C795.684 255.507 811.074 225.041 822.092 202.925C827.58 191.881 832.025 182.933 835.112 176.721C836.641 173.648 837.833 171.253 838.658 169.597C839.06 168.807 839.372 168.193 839.596 167.753C839.81 167.339 839.937 167.135 839.937 167.135" fill="#DADBD8"/>
<path d="M786.49 214.413C786.535 214.399 786.734 214.941 787.052 215.929C787.378 216.917 787.803 218.358 788.312 220.145C789.325 223.719 790.598 228.691 791.903 234.203C793.17 239.643 794.316 244.563 795.192 248.326C795.599 250.019 795.94 251.449 796.215 252.597C796.462 253.605 796.576 254.169 796.531 254.183C796.486 254.197 796.283 253.658 795.955 252.671C795.635 251.682 795.208 250.239 794.716 248.447C793.739 244.862 792.532 239.875 791.227 234.363C789.922 228.935 788.741 224.026 787.837 220.27C787.423 218.578 787.074 217.15 786.792 216.002C786.552 214.991 786.442 214.426 786.49 214.413Z" fill="#DADBD8"/>
<path d="M798.584 254.581C798.531 254.397 808.666 251.321 821.219 247.712C833.776 244.103 843.995 241.327 844.048 241.512C844.102 241.696 833.968 244.771 821.411 248.38C808.859 251.988 798.638 254.765 798.584 254.581" fill="#DADBD8"/>
<path d="M770.098 305.059C770.1 305.011 770.687 304.986 771.747 304.983C772.95 304.987 774.451 304.992 776.234 304.999C780.02 305.007 785.251 304.995 791.022 304.771C796.794 304.561 802.011 304.187 805.786 303.886C807.563 303.747 809.059 303.63 810.259 303.534C811.316 303.458 811.903 303.436 811.908 303.484C811.914 303.532 811.336 303.643 810.288 303.805C809.239 303.963 807.718 304.166 805.832 304.375C802.063 304.802 796.836 305.254 791.048 305.466C785.26 305.69 780.015 305.623 776.224 305.49C774.328 305.417 772.796 305.338 771.738 305.254C770.679 305.174 770.096 305.107 770.098 305.059" fill="#DADBD8"/>
<path d="M751.16 271.136C751.203 271.112 751.512 271.558 752.036 272.386C752.624 273.35 753.347 274.532 754.199 275.926C755.999 278.93 758.444 283.104 761.108 287.736C763.772 292.368 766.151 296.581 767.841 299.648C768.619 301.086 769.277 302.305 769.813 303.298C770.267 304.166 770.495 304.658 770.453 304.684C770.413 304.706 770.104 304.26 769.579 303.432C768.992 302.47 768.269 301.288 767.416 299.893C765.616 296.889 763.169 292.714 760.505 288.082C757.843 283.45 755.464 279.238 753.773 276.172C752.996 274.733 752.337 273.514 751.801 272.522C751.349 271.652 751.119 271.16 751.16 271.136" fill="#DADBD8"/>
<path d="M720.35 312.505C720.392 312.48 720.782 313.056 721.454 314.116C722.181 315.296 723.118 316.816 724.244 318.643C726.572 322.479 729.748 327.805 733.218 333.707C736.69 339.612 739.798 344.977 742.02 348.877C743.068 350.749 743.94 352.308 744.617 353.516C745.217 354.619 745.53 355.24 745.489 355.264C745.446 355.288 745.056 354.713 744.384 353.652C743.658 352.473 742.721 350.952 741.597 349.127C739.268 345.289 736.092 339.964 732.62 334.059C729.15 328.156 726.041 322.792 723.821 318.891C722.772 317.02 721.898 315.463 721.221 314.253C720.621 313.149 720.309 312.529 720.35 312.505" fill="#DADBD8"/>
<path d="M745.176 354.071C745.176 354.023 745.92 353.974 747.264 353.922C748.73 353.874 750.645 353.811 752.952 353.738C757.754 353.575 764.386 353.326 771.7 352.845C779.017 352.374 785.626 351.774 790.409 351.306C792.708 351.083 794.613 350.898 796.074 350.755C797.413 350.631 798.157 350.585 798.162 350.633C798.169 350.679 797.437 350.817 796.108 351.025C794.778 351.231 792.85 351.501 790.464 351.794C785.69 352.387 779.074 353.066 771.745 353.537C764.42 354.021 757.77 354.193 752.961 354.229C750.556 354.241 748.609 354.23 747.265 354.194C745.92 354.159 745.176 354.119 745.176 354.071" fill="#DADBD8"/>
<path d="M852.937 518.786C852.937 518.977 661.985 519.133 426.489 519.133C190.911 519.133 0 518.977 0 518.786C0 518.594 190.911 518.438 426.489 518.438C661.985 518.438 852.937 518.594 852.937 518.786" fill="#17282F"/>
<path d="M39.2449 425.786C44.1933 426.004 48.8157 428.731 52.0485 432.483C55.2813 436.236 57.2433 440.936 58.4824 445.732C60.8804 455.01 59.2637 465.921 56.5444 475.11C46.5537 471.443 40.4652 460.702 37.7195 455.06C33.3783 446.141 30.9491 427.385 39.2449 425.786" fill="#4465B9"/>
<path d="M70.8689 486.454C67.746 481.886 67.7256 475.573 70.2678 470.658C72.8089 465.743 77.6422 462.225 82.9454 460.646C85.397 459.917 88.2376 459.625 90.3528 461.065C92.3298 462.41 93.1668 465.023 92.8902 467.399C92.6132 469.774 91.3892 471.94 89.9517 473.852C85.023 480.407 79.0485 485.847 70.8689 486.454Z" fill="#4465B9"/>
<path d="M71.7058 517.398C71.6569 517.405 71.5121 516.717 71.2741 515.472C71.0178 514.096 70.687 512.32 70.2886 510.186C69.5359 505.743 68.3355 499.424 69.3443 492.459C70.3157 485.522 73.1307 479.61 76.0583 476.091C77.5006 474.31 78.8761 473.052 79.8933 472.281C80.3855 471.874 80.8189 471.626 81.0938 471.434C81.3755 471.253 81.5293 471.167 81.5427 471.188C81.6517 471.31 79.187 472.803 76.4459 476.395C73.6703 479.925 70.9891 485.738 70.0318 492.556C69.0391 499.38 70.1417 505.641 70.7735 510.107C71.1121 512.349 71.3859 514.167 71.5413 515.428C71.6974 516.691 71.7522 517.392 71.7058 517.398" fill="#17282F"/>
<path d="M42.3558 439.905C42.3777 439.895 42.5135 440.158 42.7526 440.668C43.0141 441.246 43.3506 441.989 43.7662 442.907C44.6355 444.858 45.8563 447.695 47.3345 451.214C50.2938 458.252 54.2459 468.03 58.3657 478.926C62.4845 489.826 65.9891 499.777 68.4241 507.011C69.6427 510.629 70.6037 513.565 71.2422 515.601C71.5375 516.565 71.7766 517.345 71.9631 517.952C72.1203 518.49 72.1927 518.778 72.1698 518.786C72.1469 518.794 72.0307 518.522 71.8307 517.995C71.6126 517.399 71.3318 516.635 70.9855 515.688C70.2422 513.594 69.2162 510.706 67.9605 507.173C65.4074 499.981 61.8318 490.065 57.7167 479.171C53.599 468.283 49.7219 458.481 46.8802 451.401C45.4845 447.919 44.3438 445.074 43.5173 443.013C43.1506 442.073 42.8542 441.313 42.6235 440.722C42.4266 440.195 42.3334 439.914 42.3558 439.905" fill="#17282F"/>
<path d="M59.9864 496.828C54.1624 486.722 43.1864 479.77 31.5592 478.826C28.5982 478.586 25.0306 479.054 23.6868 481.702C22.3405 484.357 24.0837 487.526 26.0826 489.73C34.4025 498.898 48.5801 502.191 60.0889 497.627" fill="#4465B9"/>
<path d="M36.003 486.796C36.0066 486.75 36.6649 486.78 37.8572 486.88C38.454 486.926 39.1848 486.985 40.0192 487.15C40.8525 487.313 41.8233 487.413 42.8534 487.708C43.8921 487.974 45.0378 488.238 46.2228 488.676C47.431 489.044 48.6712 489.574 49.9744 490.139C52.5462 491.334 55.2733 492.892 57.8649 494.908C60.4368 496.95 62.605 499.225 64.3649 501.451C65.2102 502.592 66.0181 503.675 66.6457 504.773C67.34 505.828 67.8534 506.887 68.3368 507.844C68.855 508.784 69.1571 509.713 69.4935 510.492C69.8342 511.273 70.0446 511.975 70.2124 512.55C70.5577 513.696 70.7254 514.332 70.6801 514.346C70.5306 514.396 69.8405 511.831 67.8988 508.066C67.3936 507.137 66.8634 506.104 66.1577 505.079C65.5192 504.009 64.7066 502.959 63.8618 501.847C62.1034 499.679 59.9624 497.461 57.4358 495.455C54.891 493.475 52.2228 491.927 49.7061 490.719C48.431 490.147 47.2181 489.606 46.0342 489.219C44.8754 488.763 43.7514 488.476 42.7332 488.185C38.6337 487.111 35.9853 486.947 36.003 486.796" fill="#17282F"/>
<path d="M711.214 0.994367H125.02C114.914 0.994367 106.722 9.18636 106.722 19.2917V433.335C106.722 443.441 114.914 451.635 125.02 451.635H350.001C350.001 451.635 364.312 495.888 319.948 518.786H530.317C530.317 518.786 480.226 501.613 493.106 451.635H711.217C721.322 451.635 729.514 443.441 729.514 433.337V19.293C729.514 9.18636 721.322 0.994367 711.214 0.994367Z" fill="#17282F"/>
<path d="M425.944 408.089C433.919 419.485 421.439 431.966 410.04 423.993C409.664 423.729 409.323 423.388 409.06 423.012C401.108 411.617 413.574 399.153 424.964 407.109C425.34 407.37 425.683 407.712 425.944 408.089Z" fill="#33535F"/>
<path d="M710.701 378.812H124.314C121.904 378.812 119.95 376.861 119.95 374.45V30.1765C119.95 27.7672 121.904 25.8139 124.314 25.8139H710.702C713.11 25.8139 715.064 27.7672 715.064 30.1765V374.45C715.064 376.861 713.11 378.812 710.701 378.812" fill="#DADBD8"/>
<path d="M119.95 378.812H715.064V51.6765H119.95V378.812Z" fill="white"/>
<path d="M168.758 39.4459C168.758 42.0712 166.63 44.1992 164.005 44.1992C161.381 44.1992 159.253 42.0712 159.253 39.4459C159.253 36.8206 161.381 34.6939 164.005 34.6939C166.63 34.6939 168.758 36.8206 168.758 39.4459Z" fill="#33535F"/>
<path d="M139.954 39.4459C139.954 42.0712 137.827 44.1992 135.2 44.1992C132.576 44.1992 130.448 42.0712 130.448 39.4459C130.448 36.8206 132.576 34.6939 135.2 34.6939C137.827 34.6939 139.954 36.8206 139.954 39.4459Z" fill="#33535F"/>
<path d="M153.78 39.4459C153.78 42.0712 151.653 44.1992 149.026 44.1992C146.402 44.1992 144.274 42.0712 144.274 39.4459C144.274 36.8206 146.402 34.6939 149.026 34.6939C151.653 34.6939 153.78 36.8206 153.78 39.4459Z" fill="#33535F"/>
<path d="M539.847 333.231H696.567V71.3955H539.847V333.231Z" fill="#F3F2F1"/>
<path d="M581.425 225.584L583.104 228.986L586.86 229.532L584.142 232.181L584.784 235.921L581.425 234.156L578.065 235.921L578.708 232.181L575.99 229.532L579.745 228.986L581.425 225.584" fill="#F09A18"/>
<path d="M600.085 225.584L601.765 228.986L605.52 229.532L602.802 232.181L603.444 235.921L600.085 234.156L596.725 235.921L597.368 232.181L594.65 229.532L598.405 228.986L600.085 225.584" fill="#F09A18"/>
<path d="M618.745 225.584L620.425 228.986L624.18 229.532L621.463 232.181L622.104 235.921L618.745 234.156L615.387 235.921L616.028 232.181L613.311 229.532L617.065 228.986L618.745 225.584" fill="#F09A18"/>
<path d="M637.405 225.584L639.085 228.986L642.84 229.532L640.123 232.181L640.765 235.921L637.405 234.156L634.048 235.921L634.688 232.181L631.971 229.532L635.727 228.986L637.405 225.584Z" fill="#F09A18"/>
<path d="M656.066 225.584L657.745 228.986L661.501 229.532L658.784 232.181L659.425 235.921L656.066 234.156L652.708 235.921L653.348 232.181L650.632 229.532L654.386 228.986L656.066 225.584" fill="#F09A18"/>
<path d="M611.811 256.275C611.811 256.467 599.912 256.622 585.239 256.622C570.56 256.622 558.664 256.467 558.664 256.275C558.664 256.083 570.56 255.927 585.239 255.927C599.912 255.927 611.811 256.083 611.811 256.275Z" fill="#F09A18"/>
<path d="M678.593 267.813C678.593 268.005 652.056 268.161 619.33 268.161C586.593 268.161 560.062 268.005 560.062 267.813C560.062 267.622 586.593 267.466 619.33 267.466C652.056 267.466 678.593 267.622 678.593 267.813Z" fill="#17282F"/>
<path d="M678.593 277.727C678.593 277.919 652.056 278.075 619.33 278.075C586.593 278.075 560.062 277.919 560.062 277.727C560.062 277.535 586.593 277.379 619.33 277.379C652.056 277.379 678.593 277.535 678.593 277.727Z" fill="#17282F"/>
<path d="M678.593 287.643C678.593 287.833 652.056 287.989 619.33 287.989C586.593 287.989 560.062 287.833 560.062 287.643C560.062 287.451 586.593 287.295 619.33 287.295C652.056 287.295 678.593 287.451 678.593 287.643Z" fill="#17282F"/>
<path d="M678.593 297.556C678.593 297.748 652.056 297.902 619.33 297.902C586.593 297.902 560.062 297.748 560.062 297.556C560.062 297.365 586.593 297.208 619.33 297.208C652.056 297.208 678.593 297.365 678.593 297.556Z" fill="#17282F"/>
<path d="M678.593 307.47C678.593 307.661 652.056 307.815 619.33 307.815C586.593 307.815 560.062 307.661 560.062 307.47C560.062 307.278 586.593 307.122 619.33 307.122C652.056 307.122 678.593 307.278 678.593 307.47Z" fill="#17282F"/>
<path d="M550.16 214.296H685.157V84.6918H550.16V214.296Z" fill="#DADBD8"/>
<path d="M665.098 191.7L673.878 214.296H652.621L647.829 201.991L665.098 191.7" fill="#F8A58D"/>
<path d="M584.181 214.296H641.736C642.64 205.799 643.188 197.759 643.188 197.759L646.149 205.789L670.321 193.703C670.321 193.703 661.534 170.269 654.178 162.335C644.882 152.305 628.162 153.304 628.162 153.304L606.462 153.656C606.462 153.656 598.198 154.407 590.392 158.329L589.857 158.485L589.862 158.596C585.162 162.62 571.06 181.495 571.06 181.495L576.262 186.56L586.921 196.485C586.921 196.485 586.877 196.556 586.898 196.68C587.08 197.729 584.181 214.296 584.181 214.296" fill="#F09A18"/>
<path d="M628.78 152.483C628.805 152.479 628.844 152.613 628.899 152.871C628.963 153.129 629.011 153.515 629.048 154.018C629.115 155.019 629.025 156.505 628.459 158.231C627.877 159.937 626.78 161.895 624.932 163.471C623.105 165.065 620.492 166.091 617.704 166.177C614.913 166.249 612.247 165.369 610.333 163.881C608.4 162.41 607.196 160.515 606.519 158.845C605.857 157.151 605.684 155.674 605.695 154.67C605.704 154.167 605.729 153.779 605.78 153.518C605.82 153.257 605.852 153.122 605.877 153.125C606.043 153.103 605.576 155.411 606.972 158.654C607.679 160.235 608.873 162.009 610.716 163.367C612.537 164.741 615.047 165.549 617.684 165.483C620.32 165.399 622.78 164.454 624.521 162.981C626.285 161.522 627.379 159.685 627.995 158.066C629.209 154.751 628.613 152.471 628.78 152.483" fill="#17282F"/>
<path d="M649.339 157.636C649.345 157.705 648.759 157.689 647.805 158.032C646.855 158.357 645.554 159.14 644.453 160.568C643.33 161.98 642.591 164.061 642.273 166.444C641.959 168.83 641.885 171.526 641.785 174.33C641.635 179.95 641.851 185.042 642.106 188.72C642.238 190.446 642.35 191.904 642.439 193.076C642.526 194.105 642.551 194.677 642.505 194.684C642.457 194.69 642.339 194.129 642.17 193.109C642.014 192.085 641.802 190.604 641.617 188.761C641.235 185.082 640.939 179.964 641.091 174.31C641.193 171.486 641.282 168.804 641.641 166.35C641.999 163.909 642.826 161.717 644.069 160.262C645.283 158.792 646.705 158.033 647.722 157.774C648.233 157.634 648.643 157.598 648.919 157.593C649.197 157.598 649.339 157.612 649.339 157.636" fill="#17282F"/>
<path d="M597.754 155.201C597.799 155.217 597.652 155.799 597.348 156.836C596.998 158.005 596.559 159.473 596.039 161.219C594.93 164.917 593.443 170.037 591.96 175.736C590.482 181.439 589.286 186.636 588.454 190.405C588.06 192.184 587.728 193.679 587.464 194.871C587.226 195.925 587.071 196.504 587.024 196.496C586.976 196.487 587.042 195.892 587.199 194.821C587.355 193.751 587.618 192.208 587.974 190.307C588.683 186.505 589.806 181.277 591.288 175.561C592.774 169.849 594.339 164.736 595.57 161.071C596.184 159.236 596.707 157.76 597.092 156.751C597.475 155.739 597.708 155.187 597.754 155.201Z" fill="#17282F"/>
<path d="M646.149 205.789L643.188 197.758L646.149 205.789L648.794 204.466L646.149 205.789Z" fill="#A7AAA9"/>
<path d="M648.795 204.466L649.34 204.192V204.194L648.795 204.466Z" fill="#D8866F"/>
<path d="M646.149 205.789L643.188 197.758C643.188 197.758 642.83 195.672 642.414 192.746C642.33 191.633 642.226 190.288 642.106 188.72C641.894 185.653 641.709 181.604 641.74 177.084L649.34 204.194L648.794 204.466L646.149 205.789" fill="#BB7B1A"/>
<path d="M642.414 192.746C641.652 187.369 640.692 179.155 641.393 175.849L641.74 177.083C641.709 181.603 641.894 185.653 642.106 188.719C642.226 190.287 642.33 191.633 642.414 192.746" fill="#111D23"/>
<path d="M598.949 155.115C600.34 154.574 603.851 153.994 605.751 153.705C605.749 153.715 605.748 153.726 605.747 153.738C604.569 153.889 602.043 154.275 598.949 155.115V155.115ZM605.923 153.715C605.923 153.703 605.923 153.69 605.923 153.678C606.591 153.578 607.02 153.519 607.02 153.519L607.065 153.645L606.463 153.655C606.463 153.655 606.272 153.673 605.923 153.715" fill="#A7AAA9"/>
<path d="M609.964 163.588C604.555 163.201 594.228 157.491 598.672 155.237C598.752 155.197 598.844 155.156 598.95 155.116C602.043 154.276 604.57 153.889 605.747 153.739C605.718 153.981 605.702 154.293 605.695 154.671C605.684 155.675 605.858 157.152 606.519 158.845C607.152 160.408 608.246 162.164 609.964 163.588ZM610.426 163.147C608.747 161.82 607.642 160.152 606.972 158.655C606.002 156.401 605.931 154.599 605.923 153.716C606.272 153.673 606.463 153.656 606.463 153.656L607.066 153.645L610.426 163.147" fill="#F09A18"/>
<path d="M610.517 163.607C610.34 163.607 610.155 163.601 609.964 163.587C608.245 162.163 607.152 160.407 606.519 158.845C605.857 157.151 605.684 155.674 605.695 154.67C605.701 154.293 605.717 153.981 605.747 153.738C605.748 153.726 605.749 153.715 605.751 153.705C605.809 153.695 605.867 153.687 605.923 153.678C605.923 153.69 605.923 153.703 605.923 153.715C605.931 154.598 606.001 156.401 606.972 158.654C607.641 160.151 608.747 161.819 610.425 163.146L610.589 163.607C610.565 163.607 610.541 163.607 610.517 163.607" fill="#111D23"/>
<path d="M618.211 165.544C611.406 166.004 605.7 160.468 605.951 153.652C606.09 149.948 606.215 146.93 606.215 146.93C606.215 146.93 597.054 146.133 596.33 137.077C595.606 128.022 595.772 107.105 595.772 107.105C605.959 101.888 618.171 102.593 627.691 108.946L629.104 109.89L628.93 154.124C628.906 160.152 624.226 165.138 618.211 165.544" fill="#F8A58D"/>
<path d="M600.693 123.103C601.198 122.579 601.182 121.744 600.658 121.238C600.133 120.732 599.298 120.748 598.792 121.272C598.286 121.798 598.302 122.632 598.826 123.139C599.352 123.644 600.186 123.628 600.693 123.103" fill="#17282F"/>
<path d="M596.667 120.411C596.821 120.557 597.663 119.813 598.911 119.724C600.158 119.615 601.108 120.216 601.236 120.047C601.298 119.972 601.138 119.697 600.722 119.424C600.314 119.151 599.629 118.908 598.852 118.971C598.074 119.032 597.437 119.38 597.075 119.715C596.709 120.051 596.594 120.345 596.667 120.411" fill="#17282F"/>
<path d="M612.073 121.114C611.48 121.536 611.34 122.36 611.764 122.954C612.185 123.547 613.009 123.686 613.604 123.263C614.196 122.84 614.335 122.016 613.912 121.423C613.491 120.83 612.665 120.691 612.073 121.114" fill="#17282F"/>
<path d="M609.879 120.44C610.031 120.588 610.875 119.842 612.122 119.753C613.368 119.645 614.32 120.246 614.446 120.077C614.508 120.001 614.348 119.728 613.934 119.453C613.524 119.181 612.839 118.938 612.062 119C611.284 119.061 610.647 119.41 610.287 119.744C609.92 120.081 609.804 120.376 609.879 120.44" fill="#17282F"/>
<path d="M605.895 131.439C605.896 131.341 605.113 131.237 603.848 131.148C603.519 131.134 603.257 131.077 603.221 130.903C603.151 130.71 603.253 130.353 603.392 129.953C603.659 129.105 603.927 128.248 604.209 127.349C605.328 123.645 606.083 120.594 605.895 120.538C605.707 120.481 604.647 123.438 603.528 127.145C603.264 128.047 603.013 128.91 602.765 129.763C602.669 130.149 602.473 130.605 602.677 131.131C602.787 131.395 603.056 131.573 603.275 131.616C603.496 131.666 603.68 131.654 603.837 131.65C605.107 131.611 605.892 131.538 605.895 131.439" fill="#17282F"/>
<path d="M606.189 146.799C606.189 146.799 611.949 146.879 617.777 142.644C617.777 142.644 615.427 149.355 606.327 149.15L606.189 146.799Z" fill="#F68260"/>
<path d="M628.698 119.538C628.878 119.47 636.112 118.682 634.972 125.679C633.987 131.727 627.482 129.882 627.484 129.678C627.487 129.475 628.698 119.538 628.698 119.538" fill="#F8A58D"/>
<path d="M630.019 127.017C630.048 127 630.118 127.098 630.289 127.193C630.456 127.284 630.748 127.361 631.069 127.266C631.721 127.081 632.329 126.113 632.438 125.033C632.494 124.488 632.42 123.958 632.258 123.513C632.106 123.06 631.845 122.733 631.53 122.652C631.217 122.554 630.978 122.729 630.892 122.893C630.798 123.054 630.828 123.177 630.796 123.185C630.777 123.2 630.673 123.076 630.741 122.83C630.774 122.714 630.856 122.577 631.005 122.473C631.158 122.366 631.375 122.322 631.596 122.362C632.055 122.429 632.44 122.885 632.619 123.374C632.823 123.866 632.92 124.462 632.857 125.076C632.729 126.282 632.025 127.369 631.138 127.554C630.709 127.634 630.365 127.481 630.194 127.325C630.018 127.164 629.997 127.026 630.019 127.017" fill="#F68260"/>
<path d="M627.186 125.828C625.783 126.673 623.878 125.625 623.152 124.157C622.428 122.689 622.51 120.974 622.447 119.338C622.362 117.112 621.976 114.897 621.303 112.773C620.872 111.412 620.239 109.988 618.995 109.285C617.572 108.482 615.787 108.861 614.254 109.426C612.72 109.989 611.167 110.73 609.54 110.588C607.39 110.401 605.616 108.709 603.479 108.416C601.498 108.144 599.59 109.103 597.666 109.649C595.738 110.197 593.61 110.32 591.772 109.517C589.936 108.714 588.492 106.829 588.634 104.829C588.775 102.829 590.847 101.06 592.779 101.594C591.274 100.817 591.142 98.4705 592.294 97.2265C593.446 95.9838 595.402 95.7691 597.016 96.2851C598.631 96.8011 599.975 97.9171 601.235 99.0518C601.394 97.5305 602.935 96.4278 604.46 96.3305C605.988 96.2345 607.458 96.9265 608.726 97.7812C609.994 98.6372 611.143 99.6732 612.483 100.412C615.159 101.885 618.328 102.042 621.332 102.597C624.336 103.153 627.536 104.357 628.995 107.041C630.283 109.407 629.418 112.245 629.308 114.936C629.194 117.734 629.196 118.361 629.059 120.99C629.059 120.99 629.236 124.645 627.186 125.828" fill="#17282F"/>
<path d="M604.763 135.099C604.751 135.18 605.106 135.329 605.716 135.32C606.32 135.313 607.184 135.105 607.946 134.532C608.708 133.96 609.147 133.188 609.32 132.609C609.498 132.025 609.454 131.643 609.372 131.632C609.192 131.583 608.88 133.024 607.554 134.012C606.236 135.011 604.766 134.913 604.763 135.099Z" fill="white"/>
<path d="M594.348 103.452C594.393 103.432 593.749 103.724 593.805 104.708C593.845 105.167 594.06 105.735 594.551 106.189C595.048 106.656 595.864 106.817 596.676 106.699C597.499 106.576 598.333 106.192 599.153 105.7C599.973 105.221 600.825 104.64 601.839 104.379C602.852 104.129 603.987 104.325 605 104.861C606.032 105.372 606.999 106.097 608.059 106.748C609.101 107.395 610.285 107.953 611.507 107.86C612.744 107.8 613.723 107.052 614.56 106.418C615.404 105.766 616.221 105.148 617.123 104.907C618.025 104.688 618.924 104.791 619.667 105.064C621.171 105.629 622.057 106.712 622.415 107.516C622.785 108.335 622.768 108.858 622.807 108.85C622.807 108.85 622.857 108.328 622.507 107.475C622.168 106.637 621.281 105.5 619.731 104.891C618.964 104.597 618.027 104.473 617.069 104.697C616.107 104.945 615.26 105.585 614.415 106.228C613.573 106.86 612.635 107.557 611.491 107.605C610.356 107.691 609.225 107.167 608.195 106.525C607.151 105.884 606.176 105.155 605.113 104.633C604.072 104.083 602.853 103.871 601.78 104.145C600.709 104.432 599.853 105.033 599.043 105.515C598.237 106.009 597.433 106.388 596.648 106.516C595.875 106.64 595.112 106.5 594.648 106.08C594.179 105.665 593.957 105.131 593.907 104.697C593.819 103.776 594.407 103.462 594.348 103.452" fill="#33535F"/>
<path d="M598.368 98.6783C598.368 98.6783 598.31 98.5623 598.104 98.4476C597.904 98.3303 597.525 98.2663 597.106 98.4383C596.684 98.5796 596.252 99.109 596.34 99.7716C596.401 100.409 596.889 101.101 597.664 101.362C598.428 101.64 599.344 101.541 600.213 101.252C601.088 100.977 601.969 100.533 602.965 100.422C603.97 100.269 604.966 100.762 605.762 101.514C606.582 102.236 607.318 103.193 608.449 103.71C609.605 104.246 610.877 103.901 611.893 103.506C612.94 103.105 613.917 102.669 614.924 102.554C616.934 102.282 618.784 102.857 620.044 103.706C621.326 104.557 622.072 105.601 622.493 106.342C622.916 107.094 623.044 107.561 623.07 107.552C623.07 107.552 622.982 107.072 622.582 106.294C622.184 105.528 621.446 104.446 620.146 103.554C618.866 102.662 616.969 102.049 614.892 102.316C613.849 102.428 612.833 102.876 611.805 103.268C610.79 103.656 609.609 103.964 608.554 103.473C607.506 102.997 606.77 102.064 605.933 101.324C605.128 100.556 604.01 100.006 602.938 100.184C601.885 100.31 600.998 100.772 600.145 101.046C599.3 101.338 598.437 101.434 597.725 101.189C597.01 100.96 596.556 100.336 596.485 99.7543C596.394 99.1556 596.758 98.6823 597.148 98.5303C597.53 98.357 597.885 98.3996 598.081 98.4943C598.282 98.5876 598.357 98.6903 598.368 98.6783" fill="#33535F"/>
<path d="M625.144 105.764C625.32 105.83 625.801 104.745 626.981 104.026C628.141 103.273 629.326 103.309 629.344 103.121C629.354 103.041 629.057 102.908 628.542 102.901C628.029 102.893 627.306 103.053 626.634 103.474C625.964 103.898 625.506 104.481 625.292 104.945C625.074 105.413 625.065 105.738 625.144 105.764Z" fill="#17282F"/>
<path d="M626.206 99.0608C626.02 99.1101 626.286 100.478 626.064 102.135C625.867 103.797 625.27 105.054 625.436 105.147C625.571 105.249 626.49 104.031 626.711 102.217C626.947 100.405 626.363 98.9968 626.206 99.0608Z" fill="#17282F"/>
<path d="M628.333 123.361C628.355 123.418 629.032 122.452 628.709 120.781C628.587 119.932 627.921 119.124 627.268 118.3C626.941 117.885 626.645 117.406 626.568 116.857C626.491 116.305 626.621 115.716 626.775 115.12C627.127 113.929 627.245 112.68 626.979 111.606C626.733 110.525 626.076 109.674 625.367 109.237C624.661 108.776 623.955 108.682 623.497 108.718C623.035 108.76 622.807 108.893 622.807 108.893C622.815 108.918 623.055 108.828 623.501 108.82C623.943 108.816 624.608 108.934 625.264 109.39C625.927 109.828 626.521 110.628 626.744 111.661C626.985 112.69 626.872 113.87 626.523 115.054C626.369 115.654 626.225 116.276 626.316 116.893C626.405 117.513 626.741 118.026 627.077 118.448C627.757 119.284 628.389 120.021 628.529 120.821C628.711 121.598 628.649 122.264 628.551 122.697C628.459 123.138 628.312 123.348 628.333 123.361" fill="#33535F"/>
<path d="M621.71 187.891C621.732 187.912 621.753 188.209 621.774 188.748C621.796 189.381 621.821 190.143 621.849 191.051C621.902 193.021 621.969 195.797 621.998 199.137L621.909 198.927C623.166 200.099 624.554 201.391 626.026 202.76L625.68 202.695C627.877 201.807 630.262 200.841 632.746 199.837L632.534 200.097C632.572 199.888 632.613 199.66 632.656 199.431C633.429 195.231 634.158 191.276 634.792 187.836L635.094 188.197C631.165 188.168 627.862 188.1 625.504 188.041C624.405 188.009 623.49 187.983 622.742 187.961C622.094 187.936 621.733 187.913 621.71 187.891C621.686 187.867 622.001 187.844 622.613 187.819C623.342 187.797 624.236 187.771 625.308 187.739C627.645 187.681 631.032 187.612 635.094 187.584L635.46 187.581L635.396 187.945C634.785 191.389 634.084 195.348 633.337 199.555C633.297 199.783 633.256 200.011 633.217 200.221L633.182 200.411L633.005 200.481C630.516 201.473 628.125 202.425 625.924 203.303L625.726 203.38L625.577 203.236C624.125 201.847 622.754 200.536 621.512 199.347L621.421 199.26L621.422 199.137C621.452 195.669 621.518 192.82 621.572 190.869C621.601 189.985 621.625 189.247 621.646 188.632C621.668 188.125 621.689 187.868 621.71 187.891" fill="#17282F"/>
<path d="M634.292 191.362C634.306 191.548 631.488 191.88 627.994 191.891C624.5 191.906 621.682 191.594 621.692 191.407C621.703 191.211 624.522 191.211 627.992 191.196C631.462 191.186 634.28 191.167 634.292 191.362" fill="#17282F"/>
<path d="M574.096 184.411C574.38 184.688 552.742 214.296 552.742 214.296H573.932L586.921 196.485L574.096 184.411" fill="#F8A58D"/>
<path d="M307.788 395.906H531.173V22.6943H307.788V395.906Z" fill="#F3F2F1"/>
<path d="M367.053 242.467L369.448 247.317L374.8 248.095L370.927 251.87L371.841 257.202L367.053 254.686L362.267 257.202L363.18 251.87L359.307 248.095L364.66 247.317L367.053 242.467" fill="#F09A18"/>
<path d="M393.652 242.467L396.045 247.317L401.399 248.095L397.524 251.87L398.439 257.202L393.652 254.686L388.864 257.202L389.777 251.87L385.905 248.095L391.257 247.317L393.652 242.467Z" fill="#F09A18"/>
<path d="M420.25 242.467L422.643 247.317L427.996 248.095L424.123 251.87L425.038 257.202L420.25 254.686L415.462 257.202L416.376 251.87L412.503 248.095L417.855 247.317L420.25 242.467Z" fill="#F09A18"/>
<path d="M446.847 242.467L449.242 247.317L454.595 248.095L450.72 251.87L451.635 257.202L446.847 254.686L442.059 257.202L442.974 251.87L439.102 248.095L444.454 247.317L446.847 242.467" fill="#F09A18"/>
<path d="M473.444 242.467L475.838 247.317L481.192 248.095L477.318 251.87L478.232 257.202L473.444 254.686L468.657 257.202L469.572 251.87L465.698 248.095L471.05 247.317L473.444 242.467" fill="#F09A18"/>
<path d="M410.364 286.215C410.364 286.408 393.405 286.562 372.489 286.562C351.566 286.562 334.61 286.408 334.61 286.215C334.61 286.024 351.566 285.868 372.489 285.868C393.405 285.868 410.364 286.024 410.364 286.215Z" fill="#F09A18"/>
<path d="M505.553 302.661C505.553 302.853 467.729 303.009 421.082 303.009C374.42 303.009 336.604 302.853 336.604 302.661C336.604 302.47 374.42 302.313 421.082 302.313C467.729 302.313 505.553 302.47 505.553 302.661" fill="#17282F"/>
<path d="M505.553 316.793C505.553 316.984 467.729 317.14 421.082 317.14C374.42 317.14 336.604 316.984 336.604 316.793C336.604 316.6 374.42 316.445 421.082 316.445C467.729 316.445 505.553 316.6 505.553 316.793" fill="#17282F"/>
<path d="M505.553 330.923C505.553 331.116 467.729 331.271 421.082 331.271C374.42 331.271 336.604 331.116 336.604 330.923C336.604 330.732 374.42 330.577 421.082 330.577C467.729 330.577 505.553 330.732 505.553 330.923" fill="#17282F"/>
<path d="M505.553 345.054C505.553 345.246 467.729 345.402 421.082 345.402C374.42 345.402 336.604 345.246 336.604 345.054C336.604 344.864 374.42 344.706 421.082 344.706C467.729 344.706 505.553 344.864 505.553 345.054" fill="#17282F"/>
<path d="M505.553 359.186C505.553 359.377 467.729 359.531 421.082 359.531C374.42 359.531 336.604 359.377 336.604 359.186C336.604 358.993 374.42 358.838 421.082 358.838C467.729 358.838 505.553 358.993 505.553 359.186" fill="#17282F"/>
<path d="M322.488 226.378H514.912V41.6433H322.488V226.378Z" fill="#DADBD8"/>
<path d="M407.678 72.2564C409.689 65.5018 415.877 60.4431 422.73 58.8031C429.585 57.1631 438.092 54.9231 444.368 58.1271C448.289 60.1298 452.049 63.0271 453.59 67.1524C455.417 72.0431 452.606 81.1684 451.205 86.1964C449.802 91.2258 448.748 96.9618 451.52 101.386C454.216 105.692 459.706 107.363 463.116 111.131C467.844 116.356 467.157 125.516 461.704 129.978C467.764 129.624 472.882 135.806 472.672 141.874C472.461 147.94 468.018 153.266 462.605 156.015C457.193 158.764 450.944 159.338 444.873 159.348C437.349 159.362 429.824 158.582 422.461 157.026C416.39 155.743 410.06 153.698 406.11 148.912C402.48 144.515 401.476 138.508 401.465 132.806C401.428 112.631 412.017 92.6311 407.426 72.9858" fill="#17282F"/>
<path d="M412.595 67.622C406.304 63.282 397.454 63.0207 390.919 66.9807C384.383 70.942 380.519 78.9086 381.454 86.4926C381.942 90.454 383.612 94.4473 382.595 98.3046C380.69 105.535 370.492 108.359 369.148 115.713C368.618 118.614 369.65 121.538 370.427 124.382C371.206 127.226 371.698 130.431 370.23 132.989C369.142 134.883 367.172 136.066 365.627 137.61C360.656 142.571 360.748 151.278 364.91 156.935C369.071 162.593 376.432 165.307 383.451 165.081C390.47 164.853 397.178 162.021 403.164 158.349L412.595 67.622" fill="#17282F"/>
<path d="M397.856 75.721L397.951 80.5197L398.915 152.345C399.027 160.684 406.286 167.228 415.212 167.041H415.214C424.228 166.85 431.552 159.872 431.579 151.448C431.604 142.604 431.796 133.294 431.796 133.294C431.796 133.294 443.188 131.402 445.548 116.54C446.722 109.148 446.351 97.0277 445.726 87.121C445.164 78.205 437.299 71.549 428.415 72.489L397.856 75.721Z" fill="#C0776A"/>
<path d="M440.007 95.5608C440.043 96.5675 439.219 97.4275 438.168 97.4835C437.12 97.5395 436.239 96.7715 436.204 95.7648C436.168 94.7595 436.992 93.8968 438.04 93.8408C439.091 93.7848 439.971 94.5541 440.007 95.5608" fill="#17282F"/>
<path d="M443.097 93.4265C442.861 93.6745 441.417 92.6065 439.365 92.6119C437.317 92.5879 435.81 93.6425 435.589 93.3918C435.48 93.2812 435.718 92.8332 436.376 92.3545C437.02 91.8798 438.121 91.4185 439.398 91.4238C440.676 91.4305 441.752 91.8999 442.369 92.3825C443 92.8665 443.213 93.3158 443.097 93.4265" fill="#17282F"/>
<path d="M420.248 95.5608C420.284 96.5675 419.461 97.4275 418.409 97.4835C417.361 97.5395 416.481 96.7715 416.445 95.7648C416.409 94.7595 417.233 93.8968 418.281 93.8408C419.332 93.7848 420.213 94.5541 420.248 95.5608" fill="#17282F"/>
<path d="M422.934 93.8093C422.697 94.0573 421.252 92.9893 419.202 92.9946C417.153 92.9706 415.648 94.0267 415.425 93.7747C415.316 93.664 415.554 93.216 416.213 92.7373C416.857 92.2626 417.958 91.8013 419.236 91.8066C420.513 91.8133 421.588 92.2826 422.206 92.7653C422.834 93.2493 423.049 93.6987 422.934 93.8093" fill="#17282F"/>
<path d="M430.379 109.02C430.369 108.904 431.644 108.684 433.711 108.42C434.233 108.366 434.729 108.262 434.819 107.904C434.941 107.526 434.721 106.96 434.468 106.351C433.976 105.084 433.46 103.756 432.92 102.363C430.769 96.6844 429.212 92.0151 429.44 91.9311C429.669 91.8458 431.6 96.3804 433.751 102.059C434.269 103.459 434.764 104.794 435.235 106.071C435.433 106.666 435.773 107.34 435.507 108.127C435.365 108.518 434.981 108.802 434.645 108.892C434.309 108.995 434.015 109 433.756 109.016C431.676 109.128 430.385 109.138 430.379 109.02" fill="#17282F"/>
<path d="M431.796 133.294C431.796 133.294 421.798 133.939 411.89 127.985C411.89 127.985 416.719 138.194 431.596 136.803L431.796 133.294" fill="#B85549"/>
<path d="M429.511 113.965C428.774 112.989 427.482 112.453 426.198 112.593C425.308 112.688 424.408 113.117 423.868 113.843C423.327 114.567 423.214 115.596 423.706 116.287C424.259 117.065 425.415 117.245 426.394 116.967C427.374 116.689 428.215 116.044 429.016 115.403C429.238 115.224 429.463 115.039 429.603 114.796C429.74 114.552 429.77 114.233 429.599 114.032" fill="#B85549"/>
<path d="M424.341 110.439C424.676 110.42 424.68 112.647 426.585 114.227C428.488 115.812 430.861 115.562 430.88 115.874C430.909 116.014 430.351 116.306 429.348 116.332C428.367 116.367 426.931 116.051 425.765 115.084C424.603 114.115 424.103 112.823 424.027 111.908C423.94 110.978 424.189 110.427 424.341 110.439" fill="#17282F"/>
<path d="M409.95 68.7593C410.027 68.5847 410.191 68.486 410.318 68.542C410.444 68.598 410.484 68.7847 410.407 68.9607C410.33 69.1367 410.164 69.2327 410.039 69.178C409.912 69.1234 409.872 68.9353 409.95 68.7593Z" fill="#17282F"/>
<path d="M397.08 146.041C401.468 144.514 404.923 140.785 406.571 136.441C408.219 132.097 408.16 127.212 406.888 122.744C406.3 120.674 405.469 118.412 406.38 116.462C407.041 115.048 408.464 114.182 409.621 113.136C412.226 110.78 413.609 107.268 413.84 103.764C414.072 100.26 413.237 96.7543 411.954 93.4837C411.248 91.6837 410.395 89.713 411.047 87.893C411.507 86.605 412.629 85.6943 413.629 84.7623C415.742 82.789 417.498 80.437 418.79 77.8503C419.706 76.017 420.381 73.809 419.496 71.961C418.426 69.7303 415.615 69.0304 413.148 68.8424C407.265 68.3944 400.756 69.6943 397.013 74.2543C393.656 78.3437 393.269 84.0357 393.032 89.321C392.284 105.972 391.545 122.781 394.424 139.197" fill="#17282F"/>
<path d="M451.361 74.0663C450.63 74.6943 449.604 74.9236 448.82 75.4463C448.025 75.9556 447.454 76.5956 446.673 77.3143C446.292 77.681 445.874 78.0929 445.504 78.5196L445.23 78.8476L444.813 79.2676C444.477 79.5876 444.133 79.913 443.78 80.2476C442.99 80.961 441.996 81.8329 440.597 82.7569C439.23 83.6636 437.329 84.6596 435.069 85.1716C430.598 86.1663 426.674 85.1809 423.796 83.7956C420.828 82.3476 418.924 80.4903 417.609 78.8303C415.077 75.4583 414.688 72.729 415.852 71.2463C417.048 69.7183 419.948 69.973 423.232 70.7783C424.854 71.1463 426.593 71.5916 428.093 71.7423C429.642 71.9316 431.066 71.8596 431.96 71.6356C432.37 71.5476 432.908 71.3836 433.761 70.9943C434.588 70.6249 435.633 70.0689 436.83 69.5023C437.429 69.2209 438.064 68.9356 438.744 68.6716C439.074 68.5396 439.433 68.4143 439.777 68.2969C440.154 68.1729 440.569 68.0356 440.956 67.9396C442.525 67.5436 444.017 67.4423 445.408 67.5756C448.192 67.8103 450.574 69.209 451.492 70.7476C452.437 72.293 452.062 73.4783 451.361 74.0663Z" fill="#17282F"/>
<path d="M376.25 156.28C376.242 156.288 376.168 156.217 376.035 156.069C375.91 155.914 375.686 155.71 375.472 155.382C375.003 154.762 374.403 153.752 373.972 152.322C373.554 150.897 373.315 149.036 373.707 146.934C374.078 144.845 375.27 142.554 377.304 140.801C379.283 138.992 381.888 137.637 384.279 135.744C385.462 134.785 386.591 133.657 387.416 132.285C388.251 130.925 388.678 129.276 388.416 127.618C387.967 124.266 385.196 121.318 384.959 117.29C384.716 113.386 386.923 109.208 390.69 107.372C392.479 106.406 394.363 105.713 395.774 104.469C397.223 103.261 397.859 101.393 397.8 99.577C397.76 97.7477 397.186 95.973 396.435 94.3556C395.663 92.7356 394.724 91.2103 393.931 89.645C393.135 88.0823 392.471 86.4516 392.246 84.761C392.018 83.069 392.264 81.3823 392.848 79.905C394.008 76.921 396.243 74.7757 398.494 73.373C400.791 71.9717 403.172 71.365 405.243 71.025C407.327 70.6943 409.143 70.6663 410.618 70.6783C412.095 70.7023 413.238 70.781 414.011 70.8477C414.36 70.8823 414.65 70.9116 414.888 70.9356C415.087 70.9596 415.187 70.9783 415.187 70.989C415.186 71.0143 414.776 71.0076 414.003 70.9863C413.228 70.9663 412.086 70.9317 410.618 70.949C409.152 70.977 407.352 71.0463 405.307 71.4077C403.278 71.7757 400.95 72.4103 398.752 73.7903C396.591 75.1716 394.46 77.273 393.386 80.109C392.844 81.517 392.627 83.093 392.851 84.677C393.072 86.265 393.712 87.825 394.5 89.353C395.287 90.889 396.231 92.4037 397.035 94.073C397.816 95.7463 398.431 97.5903 398.482 99.5623C398.562 101.509 397.836 103.654 396.232 104.985C394.679 106.348 392.748 107.041 391.02 107.982C387.47 109.709 385.431 113.604 385.638 117.254C385.806 120.965 388.536 123.909 389.05 127.528C389.328 129.333 388.84 131.164 387.939 132.6C387.05 134.056 385.863 135.214 384.64 136.193C382.159 138.12 379.572 139.429 377.632 141.168C375.639 142.848 374.49 144.993 374.087 147.012C373.672 149.032 373.864 150.848 374.232 152.249C375.028 155.078 376.362 156.221 376.25 156.28" fill="#33535F"/>
<path d="M459.177 153.426C459.102 153.36 460.058 153.152 460.46 151.799C460.638 151.152 460.665 150.27 460.293 149.388C459.917 148.512 459.104 147.699 458.081 147.015C457.058 146.312 455.788 145.751 454.532 144.883C453.302 144.058 451.985 142.703 451.84 140.858C451.68 139.048 452.47 137.276 453.522 135.762C454.598 134.227 455.978 132.931 457.046 131.376C458.149 129.851 458.676 128.044 458.401 126.315C458.161 124.586 457.298 123.046 456.361 121.708C454.45 119.03 452.066 117.098 450.552 115.02C448.973 113.004 448.161 111.004 448.005 109.57C447.93 108.852 447.956 108.292 448.016 107.92C448.08 107.548 448.125 107.358 448.149 107.363C448.224 107.368 448.048 108.154 448.272 109.53C448.506 110.9 449.345 112.782 450.938 114.716C452.457 116.704 454.864 118.578 456.881 121.335C457.864 122.708 458.797 124.319 459.074 126.218C459.216 127.16 459.162 128.152 458.912 129.108C458.656 130.066 458.178 130.956 457.617 131.77C456.494 133.399 455.098 134.706 454.08 136.151C453.065 137.588 452.349 139.232 452.477 140.799C452.582 142.386 453.694 143.591 454.865 144.414C456.042 145.259 457.313 145.855 458.361 146.611C459.41 147.354 460.265 148.244 460.653 149.242C461.029 150.239 460.95 151.188 460.716 151.88C460.47 152.583 460.045 153.014 459.716 153.211C459.39 153.42 459.177 153.426 459.177 153.426" fill="#33535F"/>
<path d="M452.365 67.9956C452.388 67.9956 452.405 68.1542 452.415 68.4596C452.417 68.7636 452.388 69.2155 452.28 69.7875C452.056 70.9156 451.457 72.5849 449.972 74.1009C448.533 75.6196 446.021 76.8142 443.201 76.5449C441.807 76.4276 440.351 75.9796 439.076 75.1116C437.803 74.2449 436.779 73.0449 435.771 71.8636C434.767 70.6676 433.74 69.5916 432.551 68.7756C431.379 67.9476 430.104 67.3596 428.847 66.9569C426.313 66.1596 423.847 66.2356 421.899 66.7049C419.933 67.1609 418.469 67.9515 417.513 68.5502C416.559 69.1635 416.079 69.5809 416.041 69.5369C416.015 69.5102 416.435 69.0222 417.361 68.3276C418.289 67.6476 419.757 66.7636 421.78 66.2289C423.78 65.6796 426.369 65.5436 429.033 66.3436C430.356 66.7489 431.7 67.3529 432.94 68.2182C434.196 69.0635 435.295 70.2156 436.296 71.4116C437.309 72.5982 438.291 73.7449 439.46 74.5489C440.621 75.3516 441.964 75.7822 443.259 75.9076C445.884 76.1876 448.223 75.1395 449.627 73.7515C451.075 72.3662 451.721 70.7996 452.017 69.7262C452.307 68.6342 452.3 67.9929 452.365 67.9956" fill="#33535F"/>
<path d="M423.464 85.7704C423.262 86.3291 421.214 86.0637 418.807 86.3544C416.395 86.5957 414.455 87.3011 414.135 86.7997C413.994 86.5611 414.331 86.0357 415.115 85.4971C415.894 84.9571 417.134 84.445 418.579 84.2837C420.023 84.1264 421.347 84.3557 422.223 84.7117C423.106 85.0677 423.551 85.5064 423.464 85.7704" fill="#17282F"/>
<path d="M442.343 87.4898C441.983 87.9551 440.569 87.4725 438.871 87.4485C437.171 87.3658 435.732 87.7618 435.4 87.2752C435.256 87.0378 435.483 86.5711 436.111 86.1311C436.729 85.6911 437.767 85.3325 438.935 85.3671C440.103 85.4045 441.113 85.8271 441.705 86.3031C442.305 86.7818 442.501 87.2618 442.343 87.4898Z" fill="#17282F"/>
<path d="M384.28 226.977C384.996 228.213 379.726 210.477 379.726 210.477L375.314 226.689L342.581 226.932C342.581 226.932 361.08 166.472 369.865 158.032C381.33 147.016 402.822 146.413 402.822 146.413L415.686 157.392L436.012 146.952C436.012 146.952 436.269 146.976 436.748 147.033C450.29 148.671 462.078 157.072 468.184 169.271L490.222 226.379H461.122L454.918 209.527L456.989 226.379L384.28 226.977" fill="#F09A18"/>
<path d="M392.356 147.731L421.843 214.815L436.748 147.033C436.748 147.033 432.616 146.793 426.715 146.571C425.078 146.51 423.304 149.722 421.444 152.933C419.594 156.131 417.658 159.329 415.687 159.295C413.16 159.251 410.578 146.198 408.04 146.206C404.827 146.217 401.688 146.278 398.835 146.413C396.426 146.527 394.231 147.551 392.356 147.731Z" fill="#FAFAF9"/>
<path d="M397.95 148.352V142.193C397.95 142.193 415.53 142.427 415.829 156.496C415.829 156.496 418.325 142.633 432.51 142.193L433.421 146.911L429.418 163.088L419.182 169.905H405.38L399.668 162.395L397.95 148.352Z" fill="#FAFAF9"/>
<path d="M421.649 216.605C421.626 216.597 421.688 216.34 421.824 215.853C421.984 215.374 422.214 214.657 422.672 213.802C423.126 212.949 423.818 211.966 424.757 210.966C425.686 209.96 426.805 208.89 427.944 207.621C430.204 205.058 433.148 202.142 435.273 198.176C436.325 196.204 437.052 193.925 437.16 191.5C437.285 189.096 436.692 186.52 435.12 184.513L434.649 183.91L435.42 183.952C435.704 183.966 436.01 183.961 436.316 183.913C437.542 183.712 438.624 182.93 439.389 181.96C440.172 180.981 440.618 179.81 440.792 178.594C441.146 176.153 440.618 173.733 440.249 171.441C439.489 166.865 438.8 162.73 438.217 159.225C437.674 155.812 437.23 153.017 436.906 150.978C436.774 150.064 436.668 149.32 436.585 148.73C436.518 148.216 436.494 147.944 436.518 147.94C436.542 147.936 436.612 148.2 436.722 148.706C436.84 149.29 436.989 150.026 437.172 150.933C437.55 152.962 438.068 155.744 438.701 159.141C439.325 162.64 440.064 166.765 440.88 171.333C441.261 173.613 441.829 176.076 441.465 178.696C441.288 179.989 440.792 181.314 439.932 182.388C439.088 183.46 437.878 184.358 436.426 184.598C436.065 184.656 435.701 184.664 435.365 184.644L435.664 184.082C437.365 186.254 437.978 189.012 437.836 191.53C437.714 194.069 436.936 196.449 435.834 198.473C433.608 202.541 430.601 205.43 428.301 207.948C427.125 209.212 425.977 210.262 425.034 211.23C424.082 212.19 423.385 213.117 422.905 213.933C421.969 215.582 421.721 216.632 421.649 216.605" fill="#17282F"/>
<path d="M421.645 216.027C421.626 216.041 421.436 215.832 421.094 215.419C420.705 214.949 420.21 214.352 419.6 213.615C418.296 212.056 416.356 209.845 413.914 207.147C411.489 204.437 408.544 201.243 405.61 197.4C404.169 195.48 402.589 193.451 401.493 191.001C400.413 188.583 399.918 185.597 400.996 182.855C401.144 182.487 401.326 182.136 401.509 181.819L401.693 182.325C399.07 181.38 396.808 179.731 395.122 177.753C393.406 175.795 392.181 173.569 391.338 171.355C389.632 166.888 389.545 162.527 389.705 159.007C389.898 155.46 390.38 152.636 390.705 150.692C390.876 149.783 391.013 149.043 391.121 148.46C391.225 147.952 391.29 147.688 391.314 147.692C391.337 147.695 391.317 147.967 391.257 148.481C391.181 149.069 391.086 149.815 390.969 150.732C390.724 152.684 390.318 155.512 390.188 159.027C390.092 162.516 390.238 166.801 391.93 171.125C392.766 173.276 393.97 175.427 395.63 177.308C397.264 179.208 399.429 180.771 401.921 181.669L402.314 181.811L402.104 182.176C401.938 182.463 401.774 182.781 401.64 183.115C400.657 185.604 401.09 188.419 402.116 190.727C403.156 193.077 404.693 195.088 406.121 197.015C409.001 200.847 411.902 204.069 414.282 206.821C416.677 209.563 418.566 211.831 419.81 213.445C420.429 214.257 420.902 214.891 421.205 215.335C421.513 215.775 421.664 216.012 421.645 216.027" fill="#17282F"/>
<path d="M421.321 226.827C421.131 226.814 421.045 224.124 421.131 220.823C421.216 217.52 421.441 214.84 421.633 214.836C421.824 214.832 421.911 217.52 421.824 220.842C421.739 224.162 421.513 226.842 421.321 226.827" fill="#17282F"/>
<path d="M378.879 214.474C378.829 214.458 379.047 213.64 379.449 212.164C379.835 210.684 380.388 208.541 380.924 205.864C382 200.518 382.939 192.982 382.525 184.661C382.311 180.506 381.903 176.542 380.957 173.081C380.041 169.613 378.537 166.697 376.813 164.613C375.107 162.506 373.275 161.228 371.948 160.509C370.605 159.8 369.784 159.568 369.804 159.505C369.811 159.482 370.019 159.526 370.411 159.633C370.801 159.742 371.368 159.942 372.071 160.268C373.461 160.926 375.389 162.176 377.191 164.3C379.009 166.397 380.607 169.382 381.575 172.912C382.573 176.438 383.001 180.444 383.22 184.628C383.636 193.021 382.611 200.616 381.404 205.965C380.803 208.645 380.176 210.778 379.709 212.24C379.473 212.97 379.267 213.53 379.128 213.909C378.987 214.286 378.901 214.482 378.879 214.474" fill="#17282F"/>
<path d="M455.172 203.604C455.124 203.603 455.092 202.808 455.075 201.376C455.064 199.944 455.027 197.871 454.937 195.314C454.771 190.199 454.305 183.136 453.188 175.41C451.48 163.215 448.576 153.119 447.58 149.472L447.485 149.126L447.76 149.346C448.664 150.066 449.099 150.438 449.075 150.471C449.049 150.504 448.569 150.194 447.621 149.531L447.801 149.403C449.055 152.971 452.159 163.062 453.876 175.311C454.996 183.071 455.387 190.17 455.428 195.303C455.453 197.868 455.417 199.947 455.345 201.38C455.279 202.814 455.22 203.606 455.172 203.604" fill="#17282F"/>
<path d="M412.564 148.53C412.569 148.59 412.229 148.569 411.776 148.881C411.315 149.183 410.835 149.843 410.375 150.773C409.417 152.597 408.359 155.322 408.043 158.547L407.956 159.422L407.421 158.718C407.112 158.309 406.785 157.878 406.454 157.442C404.232 154.549 402.051 152.065 400.436 150.299C398.819 148.535 397.786 147.469 397.856 147.394C397.917 147.329 399.072 148.271 400.789 149.959C402.504 151.646 404.764 154.101 407.004 157.018C407.337 157.459 407.664 157.894 407.976 158.309L407.356 158.478C407.705 155.141 408.884 152.351 409.971 150.547C410.491 149.634 411.084 148.933 411.649 148.665C412.213 148.383 412.576 148.505 412.564 148.53" fill="#17282F"/>
<path d="M433.197 147.199C433.271 147.261 432.367 148.509 430.84 150.479C429.316 152.449 427.171 155.139 424.771 158.083C424.335 158.614 423.909 159.135 423.5 159.634L422.908 160.359L422.891 159.425C422.861 157.762 422.813 156.213 422.557 154.851C422.315 153.489 421.853 152.338 421.307 151.471C420.207 149.714 418.94 149.214 419.011 149.117C419.024 149.085 419.344 149.163 419.857 149.467C420.369 149.769 421.06 150.33 421.687 151.219C422.317 152.101 422.861 153.314 423.153 154.733C423.461 156.149 423.536 157.746 423.577 159.409L422.968 159.199C423.375 158.699 423.8 158.177 424.232 157.643C426.633 154.699 428.837 152.059 430.46 150.169C432.083 148.279 433.123 147.139 433.197 147.199" fill="#17282F"/>
<path d="M421.067 213.268C421.02 213.272 420.904 212.481 420.736 211.046C420.571 209.492 420.354 207.441 420.09 204.962C419.574 199.822 418.91 192.716 418.216 184.865C417.526 177.009 416.938 169.896 416.547 164.745C416.374 162.257 416.23 160.201 416.12 158.642C416.035 157.2 416.011 156.401 416.058 156.397C416.106 156.393 416.222 157.185 416.39 158.62C416.555 160.174 416.772 162.226 417.036 164.705C417.552 169.845 418.216 176.95 418.91 184.804C419.6 192.653 420.188 199.765 420.578 204.916C420.752 207.404 420.896 209.461 421.006 211.02C421.091 212.462 421.115 213.262 421.067 213.268" fill="#17282F"/>
<path d="M421.099 168.588C421.036 168.523 421.591 168.194 422.311 168.67C422.636 168.898 422.992 169.322 423.001 169.934C423.021 170.559 422.512 171.154 421.893 171.342C421.283 171.555 420.521 171.375 420.168 170.858C419.815 170.358 419.853 169.806 419.981 169.43C420.281 168.62 420.924 168.559 420.912 168.65C420.959 168.744 420.549 168.954 420.456 169.558C420.411 169.843 420.456 170.216 420.673 170.466C420.876 170.718 421.279 170.808 421.679 170.682C422.076 170.55 422.348 170.238 422.361 169.914C422.391 169.586 422.208 169.258 422.003 169.052C421.571 168.62 421.116 168.692 421.099 168.588" fill="#17282F"/>
<path d="M423.663 185.16C423.612 185.083 424.243 184.868 424.853 185.507C425.124 185.808 425.384 186.312 425.244 186.924C425.111 187.552 424.444 188.008 423.784 188.023C423.127 188.067 422.421 187.671 422.233 187.058C422.04 186.46 422.253 185.935 422.497 185.612C423.049 184.92 423.696 185.079 423.652 185.16C423.664 185.264 423.196 185.324 422.908 185.882C422.772 186.144 422.696 186.524 422.832 186.832C422.952 187.14 423.324 187.346 423.755 187.33C424.184 187.307 424.536 187.07 424.628 186.752C424.736 186.434 424.627 186.062 424.468 185.812C424.132 185.283 423.66 185.264 423.663 185.16Z" fill="#17282F"/>
<path d="M421.233 215.585C411.733 214.137 401.736 205.202 398.925 196.025C397.528 191.468 397.386 186.484 395.132 182.284C393.818 179.837 391.854 177.796 390.457 175.396C385.816 167.432 388.182 157.397 390.676 148.522L391.074 148.71C390.974 149.25 390.852 149.908 390.705 150.692C390.38 152.636 389.898 155.46 389.705 159.006C389.545 162.526 389.632 166.888 391.338 171.354C391.621 172.096 391.946 172.84 392.318 173.573C393.868 177.098 396.302 180.116 399.676 181.425C400.201 181.708 400.746 181.96 401.309 182.181C401.197 182.396 401.089 182.622 400.996 182.854C399.918 185.597 400.413 188.582 401.493 191.001C402.589 193.45 404.169 195.48 405.61 197.4C408.544 201.242 411.489 204.437 413.914 207.146C416.356 209.845 418.296 212.056 419.6 213.614C420.21 214.352 420.705 214.949 421.094 215.418C421.144 215.478 421.189 215.534 421.233 215.585V215.585ZM390.809 151.986C390.866 151.536 390.921 151.116 390.969 150.732C391.068 149.962 391.15 149.314 391.218 148.778L391.45 148.888C391.209 149.913 390.994 150.946 390.809 151.986" fill="#BE7F1F"/>
<path d="M421.321 215.599C421.292 215.593 421.262 215.589 421.233 215.585C421.189 215.535 421.144 215.479 421.094 215.419C420.705 214.949 420.21 214.352 419.6 213.615C418.296 212.056 416.356 209.845 413.914 207.147C411.489 204.437 408.544 201.243 405.61 197.4C404.169 195.48 402.589 193.451 401.493 191.001C400.413 188.583 399.918 185.597 400.996 182.855C401.089 182.623 401.197 182.396 401.309 182.181C400.746 181.96 400.201 181.708 399.676 181.425C400.349 181.687 401.058 181.88 401.806 181.997C400.162 183.923 400.578 186.544 401.141 189.012C401.704 191.481 402.85 192.912 404.256 195.019C408.788 201.811 416.402 209.604 421.321 215.599ZM392.318 173.573C391.946 172.84 391.621 172.096 391.338 171.355C389.632 166.888 389.545 162.527 389.705 159.007C389.898 155.46 390.38 152.636 390.705 150.692C390.852 149.908 390.974 149.251 391.074 148.711L391.218 148.779C391.15 149.315 391.068 149.963 390.969 150.732C390.921 151.116 390.866 151.536 390.809 151.987C389.861 157.304 389.686 162.775 390.654 168.076C390.994 169.936 391.546 171.817 392.318 173.573" fill="#0F191D"/>
<path d="M460.751 225.369C457.651 221.284 455.896 215.842 455.171 210.212L460.751 225.369Z" fill="#8F9192"/>
<path d="M460.754 225.37C460.752 225.37 460.752 225.369 460.751 225.369L455.171 210.211C454.671 206.329 454.66 202.355 455.034 198.674C455.058 199.73 455.07 200.638 455.075 201.377C455.092 202.809 455.124 203.603 455.172 203.605C455.22 203.605 455.279 202.813 455.346 201.381C455.414 200.019 455.45 198.077 455.431 195.686C455.431 195.685 455.431 195.685 455.432 195.683L455.467 192.677C461.828 201.243 462.899 214.919 460.754 225.37" fill="#B7791B"/>
<path d="M455.172 203.604C455.124 203.603 455.092 202.808 455.075 201.376C455.069 200.638 455.057 199.73 455.033 198.674C455.137 197.652 455.271 196.654 455.431 195.686C455.449 198.076 455.413 200.019 455.345 201.381C455.279 202.813 455.22 203.604 455.172 203.604Z" fill="#0F191D"/>
<path d="M142.9 340.783H299.622V78.9472H142.9V340.783Z" fill="#F3F2F1"/>
<path d="M184.479 233.135L186.159 236.538L189.913 237.083L187.196 239.733L187.837 243.473L184.479 241.706L181.12 243.473L181.761 239.733L179.044 237.083L182.799 236.538L184.479 233.135" fill="#F09A18"/>
<path d="M203.139 233.135L204.819 236.538L208.575 237.083L205.856 239.733L206.499 243.473L203.139 241.706L199.78 243.473L200.421 239.733L197.704 237.083L201.46 236.538L203.139 233.135" fill="#F09A18"/>
<path d="M221.799 233.135L223.479 236.538L227.235 237.083L224.518 239.733L225.159 243.473L221.799 241.706L218.44 243.473L219.082 239.733L216.364 237.083L220.12 236.538L221.799 233.135" fill="#F09A18"/>
<path d="M240.46 233.135L242.139 236.538L245.895 237.083L243.177 239.733L243.819 243.473L240.46 241.706L237.101 243.473L237.743 239.733L235.025 237.083L238.78 236.538L240.46 233.135" fill="#F09A18"/>
<path d="M259.12 233.135L260.8 236.538L264.555 237.083L261.838 239.733L262.479 243.473L259.12 241.706L255.762 243.473L256.403 239.733L253.686 237.083L257.44 236.538L259.12 233.135" fill="#F09A18"/>
<path d="M214.864 263.826C214.864 264.019 202.967 264.174 188.293 264.174C173.613 264.174 161.719 264.019 161.719 263.826C161.719 263.635 173.613 263.479 188.293 263.479C202.967 263.479 214.864 263.635 214.864 263.826Z" fill="#F09A18"/>
<path d="M281.647 275.365C281.647 275.557 255.111 275.713 222.384 275.713C189.647 275.713 163.117 275.557 163.117 275.365C163.117 275.174 189.647 275.018 222.384 275.018C255.111 275.018 281.647 275.174 281.647 275.365Z" fill="#17282F"/>
<path d="M281.647 285.28C281.647 285.472 255.111 285.628 222.384 285.628C189.647 285.628 163.117 285.472 163.117 285.28C163.117 285.088 189.647 284.932 222.384 284.932C255.111 284.932 281.647 285.088 281.647 285.28Z" fill="#17282F"/>
<path d="M281.647 295.194C281.647 295.384 255.111 295.539 222.384 295.539C189.647 295.539 163.117 295.384 163.117 295.194C163.117 295.002 189.647 294.846 222.384 294.846C255.111 294.846 281.647 295.002 281.647 295.194Z" fill="#17282F"/>
<path d="M281.647 305.107C281.647 305.299 255.111 305.454 222.384 305.454C189.647 305.454 163.117 305.299 163.117 305.107C163.117 304.915 189.647 304.759 222.384 304.759C255.111 304.759 281.647 304.915 281.647 305.107Z" fill="#17282F"/>
<path d="M281.647 315.022C281.647 315.213 255.111 315.367 222.384 315.367C189.647 315.367 163.117 315.213 163.117 315.022C163.117 314.829 189.647 314.674 222.384 314.674C255.111 314.674 281.647 314.829 281.647 315.022Z" fill="#17282F"/>
<path d="M152.965 221.848H287.964V92.2425H152.965V221.848Z" fill="#DADBD8"/>
<path d="M228.756 156.472C228.788 159.843 229.061 161.832 229.093 165.202C229.101 166.044 229.163 167.006 229.82 167.534C230.373 167.978 231.199 167.947 231.835 167.632C232.472 167.316 232.959 166.77 233.408 166.219C237.133 161.654 239.423 155.934 239.879 150.058C239.917 149.551 239.927 148.984 239.593 148.599C239.065 147.987 238.076 148.216 237.339 148.544C233.715 150.155 230.648 152.988 228.756 156.472" fill="#17282F"/>
<path d="M206.089 116.15L206.156 119.517L206.832 169.907C206.91 175.758 212.002 180.349 218.265 180.218H218.266C224.592 180.085 229.729 175.187 229.746 169.277C229.766 163.073 229.9 156.542 229.9 156.542C229.9 156.542 237.892 155.215 239.548 144.787C240.372 139.602 240.11 131.098 239.673 124.149C239.278 117.893 233.761 113.223 227.528 113.882L206.089 116.15Z" fill="#F8A58D"/>
<path d="M235.66 130.069C235.686 130.775 235.108 131.378 234.37 131.418C233.636 131.458 233.017 130.918 232.993 130.213C232.968 129.506 233.545 128.902 234.281 128.863C235.017 128.822 235.636 129.363 235.66 130.069Z" fill="#17282F"/>
<path d="M237.829 128.571C237.662 128.746 236.65 127.997 235.21 127.999C233.773 127.983 232.717 128.723 232.561 128.547C232.484 128.47 232.653 128.154 233.113 127.819C233.565 127.486 234.337 127.162 235.234 127.166C236.13 127.171 236.884 127.501 237.318 127.838C237.761 128.178 237.91 128.494 237.829 128.571" fill="#17282F"/>
<path d="M221.799 130.069C221.824 130.775 221.247 131.378 220.509 131.418C219.773 131.458 219.156 130.918 219.131 130.213C219.105 129.506 219.684 128.902 220.419 128.863C221.156 128.822 221.773 129.363 221.799 130.069Z" fill="#17282F"/>
<path d="M223.684 128.84C223.518 129.014 222.503 128.265 221.066 128.269C219.628 128.252 218.572 128.993 218.415 128.816C218.339 128.738 218.506 128.424 218.967 128.089C219.42 127.754 220.192 127.432 221.088 127.434C221.986 127.44 222.739 127.77 223.172 128.108C223.614 128.448 223.766 128.762 223.684 128.84Z" fill="#17282F"/>
<path d="M228.907 139.513C228.9 139.431 229.795 139.277 231.243 139.091C231.611 139.053 231.959 138.98 232.022 138.729C232.107 138.464 231.954 138.068 231.775 137.641C231.431 136.752 231.068 135.819 230.688 134.843C229.18 130.859 228.087 127.583 228.248 127.523C228.41 127.464 229.763 130.645 231.272 134.629C231.635 135.612 231.983 136.548 232.314 137.444C232.452 137.861 232.691 138.335 232.504 138.887C232.406 139.16 232.135 139.36 231.9 139.423C231.664 139.495 231.458 139.499 231.275 139.509C229.816 139.588 228.911 139.595 228.907 139.513" fill="#17282F"/>
<path d="M229.9 156.542C229.9 156.542 222.885 156.994 215.936 152.817C215.936 152.817 219.322 159.979 229.76 159.003L229.9 156.542Z" fill="#F68260"/>
<path d="M228.297 142.981C227.78 142.297 226.873 141.921 225.973 142.019C225.348 142.085 224.717 142.387 224.339 142.895C223.959 143.404 223.88 144.125 224.224 144.611C224.612 145.156 225.424 145.283 226.111 145.088C226.797 144.893 227.388 144.44 227.949 143.989C228.105 143.865 228.264 143.735 228.361 143.564C228.459 143.393 228.479 143.171 228.359 143.029" fill="#F68260"/>
<path d="M224.671 140.508C224.906 140.495 224.908 142.057 226.244 143.167C227.58 144.279 229.244 144.103 229.258 144.321C229.279 144.42 228.886 144.624 228.184 144.643C227.494 144.668 226.488 144.447 225.67 143.768C224.854 143.088 224.503 142.18 224.45 141.539C224.39 140.887 224.564 140.5 224.671 140.508Z" fill="#17282F"/>
<path d="M221.708 115.285C222.812 115.528 223.679 116.382 224.344 117.297C225.009 118.21 225.547 119.226 226.336 120.036C228.107 121.852 231.115 122.306 233.344 121.097C234.188 121.908 235.293 122.785 236.401 122.408C237.048 122.188 237.501 121.554 237.632 120.884C237.761 120.212 237.61 119.512 237.339 118.882C236.248 116.345 233.437 114.984 230.727 114.452C227.429 113.805 223.956 114.074 220.799 115.224" fill="#17282F"/>
<path d="M196.566 222.267C197.067 223.135 193.37 210.691 193.37 210.691L190.275 222.064L167.31 222.235C167.31 222.235 180.288 179.818 186.452 173.896C194.495 166.168 209.574 165.746 209.574 165.746L232.859 166.123C232.859 166.123 233.04 166.141 233.375 166.181C242.876 167.33 251.146 173.223 255.43 181.782L270.891 221.847H250.476L246.123 210.024L247.575 221.847L196.566 222.267" fill="#17282F"/>
<path d="M236.552 118.645C238.328 121.322 238.473 124.769 238.889 127.956C239.592 133.34 239.967 138.829 239.073 144.185C238.18 149.542 235.924 154.798 231.992 158.544C228.059 162.289 222.317 164.322 217.033 163.072C211.099 161.666 209.191 156.465 207.515 150.601C205.837 144.737 209.577 139.412 211.248 133.546C212.535 129.03 213.02 122.656 215.936 118.976C218.851 115.294 223.704 115.049 225.129 115.109C225.129 115.109 232.992 113.28 236.552 118.645V118.645ZM243.38 164.752C242.669 163.078 240.119 163.138 238.991 161.712C237.759 160.153 238.849 157.92 239.764 156.157C244.179 147.646 243.735 137.524 242.931 127.969C242.587 123.88 242.169 119.694 240.396 115.993C236.86 108.612 228.313 102.765 217.675 103.24C209.021 103.577 202.44 111.382 197.755 118.666C193.068 125.949 190.583 137.394 192.119 145.918C192.887 150.184 197.488 153.474 196.648 157.728C196.119 160.408 193.309 163.622 193.86 166.298C194.611 169.953 199.916 171.225 203.02 173.294C206.215 175.424 208.871 178.248 211.676 180.87C214.48 183.493 217.547 185.982 221.183 187.214C224.82 188.445 229.151 188.214 232.117 185.777C236.956 181.802 236.489 173.872 240.892 169.418C242.217 168.077 244.117 166.486 243.38 164.752" fill="#F09A18"/>
<path d="M194.774 162.173C194.665 162.11 194.556 162.05 194.446 161.99L196.286 158.934C195.886 159.98 195.286 161.078 194.774 162.173Z" fill="#8F9192"/>
<path d="M216.256 176.594C215.33 176.594 214.406 176.479 213.525 176.251C209.645 175.247 206.456 172.535 203.589 169.731C200.814 167.016 198.141 164.092 194.774 162.172C195.286 161.078 195.886 159.979 196.286 158.934L197.461 156.984C200.806 166.338 210.558 172.859 220.421 172.858C221.637 172.858 222.856 172.759 224.064 172.554C222.564 175.264 219.405 176.594 216.256 176.594Z" fill="#A66D18"/>
<path d="M239.117 161.858C239.073 161.812 239.03 161.762 238.99 161.712C238.509 161.102 238.382 160.39 238.461 159.644L239.148 161.716C239.138 161.764 239.128 161.812 239.117 161.858Z" fill="#8F9192"/>
<path d="M232.379 169.505C231.81 169.505 231.239 169.252 231.014 168.74C230.75 168.145 231.048 167.426 231.524 166.981C231.999 166.537 232.622 166.29 233.202 165.996C235.752 164.7 237.702 162.273 238.415 159.502L238.462 159.644C238.383 160.39 238.51 161.102 238.991 161.712C239.031 161.762 239.074 161.812 239.118 161.858C238.535 164.397 236.566 166.372 234.687 168.188C234.16 168.697 233.604 169.224 232.902 169.432C232.734 169.481 232.556 169.505 232.379 169.505" fill="#AD7218"/>
<path d="M726.928 218.058C726.928 228.846 718.183 237.592 707.395 237.592C696.605 237.592 687.861 228.846 687.861 218.058C687.861 207.27 696.605 198.525 707.395 198.525C718.183 198.525 726.928 207.27 726.928 218.058Z" fill="#DADBD8"/>
<path d="M704.43 226.378C704.37 226.304 705.422 225.34 707.173 223.838C708.926 222.337 711.38 220.298 714.121 218.072L714.112 218.604L713.976 218.485C711.276 216.142 708.858 213.992 707.132 212.409C705.404 210.826 704.368 209.81 704.43 209.738C704.493 209.666 705.644 210.55 707.453 212.038C709.264 213.526 711.732 215.617 714.432 217.96L714.568 218.08L714.881 218.35L714.558 218.612C711.814 220.836 709.312 222.813 707.481 224.218C705.65 225.622 704.49 226.452 704.43 226.378" fill="#17282F"/>
<path d="M113.878 218.058C113.878 207.27 122.623 198.525 133.412 198.525C144.2 198.525 152.945 207.27 152.945 218.058C152.945 228.846 144.2 237.592 133.412 237.592C122.623 237.592 113.878 228.846 113.878 218.058" fill="#DADBD8"/>
<path d="M136.376 209.738C136.436 209.812 135.384 210.776 133.632 212.278C131.881 213.779 129.428 215.818 126.685 218.044L126.694 217.512L126.831 217.631C129.53 219.975 131.948 222.124 133.675 223.707C135.403 225.29 136.439 226.304 136.376 226.378C136.314 226.45 135.163 225.566 133.354 224.078C131.544 222.59 129.075 220.499 126.375 218.155L126.238 218.036L125.926 217.766L126.248 217.504C128.992 215.28 131.494 213.303 133.326 211.898C135.156 210.494 136.316 209.664 136.376 209.738" fill="#17282F"/>
<path d="M453.424 39.5966C485.385 49.3846 511.627 71.0325 527.307 100.557C542.988 130.078 546.243 163.933 536.445 195.905C516.241 261.889 446.12 299.131 380.137 278.926C314.156 258.721 276.911 188.625 297.116 122.617C306.904 90.6539 328.553 64.4152 358.076 48.7326C387.599 33.0539 421.46 29.8086 453.424 39.5966ZM346.472 26.8872C311.113 45.6685 285.185 77.0939 273.464 115.374C249.264 194.397 293.872 278.377 372.895 302.579H372.896C421.389 317.427 471.724 306.335 508.991 277.311L635.303 435.316L654.625 419.871L527.248 260.534C541.917 244.586 553.341 225.211 560.099 203.146C561.696 197.929 563.001 192.675 564.023 187.391C570.485 153.911 565.373 119.491 549.153 88.9512C530.373 53.5939 498.947 27.6659 460.667 15.9446C422.385 4.22056 381.829 8.10853 346.472 26.8872" fill="#33535F"/>
</svg>
